<svg width="80" height="80" viewBox="0 0 80 80" fill="none" xmlns="http://www.w3.org/2000/svg">
<g clip-path="url(#clip0_175_22)">
<path d="M28.475 41.8208C23.115 41.8208 14.5166 47.125 10.8875 49.7771L12.1437 51.4521L14.2375 52.7083L16.75 55.6396L19.2625 58.1521L21.3562 62.3396L24.7062 64.8521C27.0791 65.1312 31.9086 65.6896 32.2436 65.6896C32.5786 65.6896 37.6875 65.1312 40.2 64.8521L44.8061 63.5958C45.2248 62.7583 46.2299 60.9996 46.9 60.6646C47.57 60.3296 47.7374 58.85 47.7374 58.1521L50.6687 55.6396C51.227 54.9416 52.0087 53.5458 50.6687 53.5458C49.3287 53.5458 44.2479 45.7291 41.875 41.8208H38.1062H28.475Z" fill="#76BAD8"/>
<path d="M53.1812 27.5833C53.4604 26.4666 54.0187 24.0658 54.0187 23.3958L55.6937 25.4896L58.625 26.3271H62.8125L64.9062 29.2583V32.6083V33.8646H62.8125H59.8812H55.6937H51.9249L48.9937 32.6083L50.6687 31.3521L53.1812 30.0958V27.5833Z" fill="#76BAD8"/>
<path d="M54.7167 22H50.9201C49.4027 21.9989 47.9114 22.398 46.5974 23.157C46.4109 23.2077 46.2413 23.307 46.105 23.4438L46.0412 23.5076C45.1285 24.1341 44.3444 24.9302 43.7321 25.8527C43.4137 26.3304 43.5091 26.9716 43.9529 27.3352C44.3968 27.6995 45.0445 27.6679 45.4507 27.2616L47.1143 25.5981L52.4746 28.278V29.224L48.9098 31.6034C47.8242 32.3237 46.3809 32.1814 45.4573 31.2616C45.177 30.9715 44.7615 30.8548 44.3711 30.9573C43.9807 31.0593 43.676 31.3641 43.574 31.7545C43.4715 32.1449 43.5882 32.5604 43.8782 32.8406C45.514 34.4851 47.7397 35.4071 50.0592 35.4H55.8333V37.6333H53.6C50.5068 37.6432 47.7097 39.4763 46.4665 42.3088C45.4851 41.9212 44.4867 41.5864 43.4753 41.2903C44.8101 40.1677 45.0598 38.2086 44.05 36.7871C43.0402 35.3651 41.1084 34.9556 39.6084 35.846C38.109 36.7364 37.5436 38.629 38.3085 40.196C35.1123 39.7467 31.8681 39.7571 28.6751 40.2276C28.9074 39.7696 29.0301 39.2636 29.0333 38.75C29.0431 37.1851 27.9679 35.822 26.4434 35.4665C24.9189 35.1116 23.3524 35.8591 22.6692 37.2675C21.986 38.6759 22.3693 40.3688 23.5918 41.3465C22.5722 41.6534 21.5705 42.016 20.5765 42.4173C19.3606 39.5275 16.5352 37.6442 13.4 37.6333H11.1667V35.4H16.9408C19.2609 35.4071 21.4871 34.4845 23.1229 32.8395C23.546 32.4011 23.54 31.7049 23.1092 31.2741C22.6785 30.8434 21.9822 30.8374 21.5438 31.2605C20.6202 32.1803 19.1764 32.3237 18.0902 31.6034L14.5167 29.2191V28.2736L19.8764 25.5932L21.5405 27.2573C21.9468 27.6629 22.594 27.6951 23.0383 27.3309C23.4822 26.9672 23.5776 26.3255 23.2592 25.8478C22.6469 24.9258 21.8628 24.1297 20.95 23.5032L20.8862 23.4395C20.7499 23.3026 20.5798 23.2034 20.3939 23.1527C19.0815 22.3969 17.594 21.9995 16.0799 22H12.2833C5.50264 22.0082 0.00817872 27.5026 0 34.2833V38.75C0.00490722 43.0651 3.50158 46.5618 7.81667 46.5667H13.038L9.42787 48.9887C9.12362 49.1931 8.93933 49.5334 8.93388 49.8998C8.92843 50.2662 9.10291 50.6113 9.40116 50.8245L9.69286 51.0333H6.0457L1.90618 46.8938L0.327148 48.4729L4.79382 52.9395C5.00319 53.1489 5.28726 53.2667 5.58333 53.2667H12.8182L14.1426 54.2127C14.6879 54.6074 15.207 55.0371 15.696 55.5H12.2833C12.1634 55.5 12.0445 55.5191 11.9306 55.5567L5.88486 57.567L1.90618 53.5938L0.327148 55.1729L4.79382 59.6395C5.00319 59.8489 5.28726 59.9667 5.58333 59.9667C5.70329 59.9667 5.82215 59.9471 5.93611 59.91L12.4644 57.7333H17.6835C18.0635 58.2491 18.4119 58.7879 18.7265 59.3456L19.0706 59.9667H15.6333C15.5134 59.9667 15.3945 59.9858 15.2806 60.0234L8.58056 62.2567C8.27904 62.3587 8.03531 62.5839 7.91045 62.8767L4.56045 70.6933L6.61276 71.5734L9.76538 64.218L15.8144 62.2H20.311L20.5602 62.6466C20.9293 63.3058 21.3922 63.9077 21.9348 64.4333H16.75C13.6677 64.4372 11.1705 66.9344 11.1667 70.0167V73.3667C11.1705 77.0656 14.1677 80.0629 17.8667 80.0667C20.3334 80.0667 22.3333 78.0667 22.3333 75.6C22.3333 73.1333 20.3334 71.1333 17.8667 71.1333H21.2167C23.8846 71.1295 26.1773 69.2386 26.6882 66.6198C26.9205 66.64 27.1528 66.6667 27.3883 66.6667H40.0233C40.1209 66.6667 40.2147 66.6476 40.3107 66.6443C40.8347 69.2517 43.1236 71.129 45.7833 71.1333H49.1333C46.6666 71.1333 44.6667 73.1333 44.6667 75.6C44.6667 78.0667 46.6666 80.0667 49.1333 80.0667C52.8323 80.0629 55.8295 77.0656 55.8333 73.3667V70.0167C55.8295 66.9344 53.3323 64.4372 50.25 64.4333H45.4731C46.1307 63.7889 46.6683 63.0326 47.0608 62.2H51.1856L57.2379 64.218L60.3905 71.5734L62.4428 70.6933L59.0928 62.8767C58.968 62.5839 58.7242 62.3587 58.4227 62.2567L51.7227 60.0234C51.6082 59.9852 51.4877 59.9661 51.3667 59.9667H48.0712C48.4676 59.1848 48.9294 58.4373 49.4518 57.7333H54.5356L61.0639 59.91C61.1778 59.9471 61.2967 59.9667 61.4167 59.9667C61.7127 59.9667 61.9968 59.8489 62.2062 59.6395L66.6729 55.1729L65.0938 53.5938L61.1151 57.5725L55.0694 55.5627C54.956 55.5229 54.8366 55.5016 54.7167 55.5H51.4915C51.8492 55.1761 52.2167 54.8626 52.6082 54.5709L54.3437 53.2667H61.4167C61.7127 53.2667 61.9968 53.1489 62.2062 52.9395L66.6729 48.4729L65.0938 46.8938L60.9543 51.0333H57.3219L57.6201 50.8098C57.9042 50.5971 58.0705 50.2618 58.0672 49.9063C58.0639 49.5514 57.8922 49.2188 57.6043 49.011L54.2221 46.5667H59.1833C63.4984 46.5618 66.9951 43.0651 67 38.75V34.2833C66.9918 27.5026 61.4974 22.0082 54.7167 22ZM14.5167 24.2333H16.0799C16.5079 24.2333 16.9348 24.2759 17.3541 24.3604L14.5167 25.7764V24.2333ZM13.4 70.0167C13.4016 68.5974 14.2958 67.3324 15.6333 66.8575V71.1333H13.4V70.0167ZM20.1 75.6C20.1 76.8334 19.1 77.8334 17.8667 77.8334C15.4 77.8334 13.4 75.8334 13.4 73.3667H17.8667C19.1 73.3667 20.1 74.3667 20.1 75.6ZM41.3167 37.6333C41.9333 37.6333 42.4333 38.1333 42.4333 38.75C42.4333 39.3667 41.9333 39.8667 41.3167 39.8667C40.7 39.8667 40.2 39.3667 40.2 38.75C40.2 38.1333 40.7 37.6333 41.3167 37.6333ZM25.6833 37.6333C26.3 37.6333 26.8 38.1333 26.8 38.75C26.8 39.3667 26.3 39.8667 25.6833 39.8667C25.0667 39.8667 24.5667 39.3667 24.5667 38.75C24.5667 38.1333 25.0667 37.6333 25.6833 37.6333ZM8.93333 38.75V44.3333H7.81667C4.73438 44.3295 2.23715 41.8323 2.23333 38.75V35.4H8.93333V38.75ZM2.29495 33.1667C2.86964 28.0828 7.16728 24.2393 12.2833 24.2333V29.8167C12.2833 30.1902 12.4698 30.5386 12.7801 30.7458L16.4152 33.1667H2.29495ZM11.1667 44.3333V39.8667H13.4C15.6513 39.8727 17.6791 41.2298 18.5422 43.3094C17.8765 43.6289 17.2211 43.9702 16.5761 44.3333H11.1667ZM21.2167 68.9H17.8667V66.6667H24.3758C23.9009 68.0042 22.6359 68.8984 21.2167 68.9ZM51.3667 70.0167V66.8575C52.7042 67.3324 53.5984 68.5974 53.6 70.0167V71.1333H51.3667V70.0167ZM53.6 73.3667C53.6 75.8334 51.6 77.8334 49.1333 77.8334C47.9 77.8334 46.9 76.8334 46.9 75.6C46.9 74.3667 47.9 73.3667 49.1333 73.3667H53.6ZM49.1333 66.6667V68.9H45.7833C44.3641 68.8984 43.0991 68.0042 42.6242 66.6667H49.1333ZM55.0662 49.9336L51.2696 52.7841C48.539 54.8304 46.4518 57.6156 45.255 60.8107C44.4317 62.9868 42.3499 64.4279 40.0233 64.4333H27.3916C25.3644 64.4328 23.4963 63.3336 22.5122 61.5615L20.6785 58.2606C19.3868 55.9428 17.5979 53.9401 15.4403 52.3959L12.0107 49.9456L15.4414 47.6441C26.8044 40.0193 41.7142 40.28 52.8039 48.2973L55.0662 49.9336ZM55.8333 44.3333H50.6966C49.9774 43.9304 49.2478 43.5536 48.5068 43.202C49.3956 41.1813 51.3923 39.8738 53.6 39.8667H55.8333V44.3333ZM49.6513 24.3604C50.0712 24.2759 50.4975 24.2333 50.9256 24.2333H52.4833V25.7764L49.6513 24.3604ZM64.7667 38.75C64.7628 41.8323 62.2656 44.3295 59.1833 44.3333H58.0667V35.4H64.7667V38.75ZM56.95 33.1667H50.5848L54.2161 30.7458C54.528 30.5391 54.7161 30.1907 54.7167 29.8167V24.2333C59.8327 24.2393 64.1304 28.0828 64.7051 33.1667H56.95Z" fill="#328FB8"/>
<path d="M27.5895 49.1272L26.0105 50.7062L28.571 53.2667L26.0105 55.8272L27.5895 57.4062L30.9395 54.0562C31.3752 53.62 31.3752 52.9134 30.9395 52.4772L27.5895 49.1272Z" fill="#328FB8"/>
<path d="M39.4106 49.1272L36.0606 52.4772C35.625 52.9134 35.625 53.62 36.0606 54.0562L39.4106 57.4062L40.9897 55.8272L38.4292 53.2667L40.9897 50.7062L39.4106 49.1272Z" fill="#328FB8"/>
<path d="M26.2183 12.7063L22.2688 8.01378L24.6537 8.27002L26.5898 8.38526L27.9103 7.32093L29.8207 5.94884L31.449 5.4743L32.0646 6.65386L32.0903 8.14119L32.7059 9.32075L36.1551 10.8976L38.7067 12.1924L40.5018 12.7564L41.8482 13.1794L42.1559 13.7692L41.7329 15.1155L41.3099 16.4618L41.0279 17.3594L39.6816 16.9364L38.0017 14.4362L26.2183 12.7063Z" fill="#76BAD8"/>
<path d="M46.8435 10.3013C45.647 10.1505 44.4397 10.4845 43.4908 11.2291L41.901 12.4698C41.3496 12.4002 40.8042 12.2887 40.2698 12.1365L41.2408 10.3726C41.3292 10.2121 41.3323 10.0179 41.2485 9.85457C41.1647 9.69149 41.0053 9.58067 40.8233 9.55876C39.3588 9.37813 37.5463 10.2425 36.86 10.609C35.6139 9.91624 34.2966 9.36065 32.9311 8.95159L32.4039 5.58945C32.3594 5.30371 32.1017 5.101 31.8133 5.12485C29.3459 5.30886 27.1446 7.06206 26.4035 7.71429C19.6353 7.14781 14.2425 8.83618 13.8836 11.7461C13.5019 14.8407 18.9725 17.9761 26.338 18.8846C27.1208 18.9811 27.8955 19.0412 28.661 19.08C30.0598 20.4259 31.8673 21.2674 33.7977 21.4715C33.9878 21.4961 34.1768 21.4201 34.2972 21.2711C34.4176 21.1221 34.4519 20.9209 34.3879 20.7405L33.7282 18.881C34.1286 18.8235 34.5155 18.7556 34.8884 18.6774C35.9152 19.8947 37.2068 20.8608 38.6646 21.5018C38.8358 21.5677 39.0289 21.5441 39.1792 21.4386C39.3295 21.3332 39.4176 21.1601 39.4139 20.9765L39.3558 17.8445C39.9215 17.8307 40.4878 17.8563 41.0504 17.9211L41.226 17.9428L42.4667 19.5326C43.2062 20.4855 44.2961 21.1028 45.4934 21.2472C45.7957 21.2845 46.071 21.0697 46.1082 20.7674L47.3233 10.9161C47.3606 10.6139 47.1458 10.3386 46.8435 10.3013ZM39.8033 10.6926L39.2047 11.7799C38.8159 11.6286 38.4281 11.4554 38.0414 11.2604C38.6042 11.0021 39.1956 10.8116 39.8033 10.6926ZM31.3949 6.28894L31.7601 8.6205C30.5102 8.29732 29.2415 8.05185 27.9613 7.88581C28.9762 7.11027 30.1478 6.56541 31.3949 6.28894ZM30.469 19.1236C31.2046 19.1159 31.9138 19.0739 32.601 19.0103L33.0285 20.216C32.1181 20.0045 31.2518 19.6347 30.469 19.1236ZM36.1048 18.3703C36.1823 18.347 36.2668 18.3284 36.3425 18.3044C36.9635 18.1124 37.6016 17.9808 38.248 17.9116L38.29 20.1065C37.4828 19.6344 36.747 19.0499 36.1048 18.3703ZM41.0403 16.8086C39.3502 16.5985 37.6348 16.75 36.0077 17.253C33.5904 18.0246 30.1913 18.2231 26.6601 17.8087C27.1426 17.6097 27.5852 17.3254 27.9666 16.9696L28.7632 16.2228C28.9205 16.0761 28.9781 15.8515 28.9107 15.6473C28.8437 15.4432 28.6639 15.2968 28.4505 15.2721L24.0721 14.732L23.9371 15.8266L27.1447 16.2223C25.992 17.2556 24.2631 17.3104 23.0473 16.3517L22.5268 17.0171C22.0163 16.8803 21.5157 16.7309 21.0306 16.5704L22.0529 15.457C23.0924 14.3252 23.3615 12.6848 22.7382 11.2804L22.3138 10.3241L21.3064 10.771L21.7302 11.7277C22.1754 12.7308 21.9834 13.9028 21.241 14.7111L19.9029 16.1674C16.9253 15.0155 14.7846 13.4503 14.9782 11.8811C14.995 11.7709 15.0239 11.6624 15.0646 11.5583L16.7118 13.1413L17.4767 12.3466L15.7213 10.6578C17.4091 9.16789 21.8178 8.23307 27.5644 8.94186C31.0962 9.37747 34.3797 10.3869 36.5735 11.7104C38.0622 12.6293 39.7183 13.2446 41.4458 13.5206L41.0403 16.8086ZM45.9587 12.9703L44.3168 12.7678L44.1818 13.8624L45.8237 14.0649L45.6887 15.1595L44.0468 14.957L43.9118 16.0516L45.5537 16.2541L45.4187 17.3487L43.7768 17.1461L43.6418 18.2407L45.2837 18.4433L45.0865 20.0418C44.392 19.8412 43.7794 19.4254 43.336 18.8542L42.0953 17.2643L42.5795 13.3392L44.1693 12.0985C44.7382 11.6523 45.4334 11.3979 46.1559 11.3717L45.9587 12.9703Z" fill="#328FB8"/>
<path d="M19.5532 10.8248C19.4786 11.4292 18.9281 11.8589 18.3236 11.7843C17.7191 11.7098 17.2895 11.1592 17.364 10.5547C17.4386 9.95025 17.9891 9.52059 18.5936 9.59515C19.1981 9.66971 19.6278 10.2203 19.5532 10.8248Z" fill="#328FB8"/>
<path d="M24.4114 11.9796L39.1884 13.8022L39.0534 14.8968L24.2764 13.0742L24.4114 11.9796Z" fill="#328FB8"/>
</g>
<defs>
<clipPath id="clip0_175_22">
<rect width="80" height="80" fill="white"/>
</clipPath>
</defs>
</svg>
