<svg width="17" height="17" viewBox="0 0 17 17" fill="none" xmlns="http://www.w3.org/2000/svg">
<path d="M14.3333 8.71789V7.76855C14.3333 6.17726 13.7012 4.65113 12.576 3.52591C11.4508 2.4007 9.92466 1.76855 8.33336 1.76855C6.74206 1.76855 5.21594 2.4007 4.09072 3.52591C2.9655 4.65113 2.33336 6.17726 2.33336 7.76855V8.71789C1.63413 9.02578 1.06189 9.56453 0.712442 10.2439C0.362989 10.9233 0.257535 11.7022 0.413733 12.45C0.56993 13.1979 0.978299 13.8694 1.57047 14.3522C2.16265 14.8349 2.90269 15.0996 3.66669 15.1019H5.00003V8.43522H3.66669V7.76855C3.66669 6.53088 4.15836 5.34389 5.03353 4.46872C5.9087 3.59355 7.09568 3.10189 8.33336 3.10189C9.57104 3.10189 10.758 3.59355 11.6332 4.46872C12.5083 5.34389 13 6.53088 13 7.76855V8.43522H11.6667V13.7686H9.00003V15.1019H13C13.764 15.0996 14.504 14.8349 15.0962 14.3522C15.6884 13.8694 16.0968 13.1979 16.253 12.45C16.4092 11.7022 16.3037 10.9233 15.9542 10.2439C15.6048 9.56453 15.0326 9.02578 14.3333 8.71789ZM3.66669 13.7686C3.13626 13.7686 2.62755 13.5578 2.25248 13.1828C1.87741 12.8077 1.66669 12.299 1.66669 11.7686C1.66669 11.2381 1.87741 10.7294 2.25248 10.3543C2.62755 9.97927 3.13626 9.76855 3.66669 9.76855V13.7686ZM13 13.7686V9.76855C13.5304 9.76855 14.0391 9.97927 14.4142 10.3543C14.7893 10.7294 15 11.2381 15 11.7686C15 12.299 14.7893 12.8077 14.4142 13.1828C14.0391 13.5578 13.5304 13.7686 13 13.7686Z" fill="#328FB8"/>
</svg>
