<svg width="512" height="512" viewBox="0 0 512 512" fill="none" xmlns="http://www.w3.org/2000/svg">
<g clip-path="url(#clip0_905_259)">
<path d="M42.6667 298.667C66.2308 298.667 85.3333 279.564 85.3333 256C85.3333 232.436 66.2308 213.333 42.6667 213.333C19.1025 213.333 0 232.436 0 256C0 279.564 19.1025 298.667 42.6667 298.667Z" fill="white"/>
<path d="M256 298.667C279.564 298.667 298.667 279.564 298.667 256C298.667 232.436 279.564 213.333 256 213.333C232.436 213.333 213.333 232.436 213.333 256C213.333 279.564 232.436 298.667 256 298.667Z" fill="white"/>
<path d="M469.333 298.667C492.898 298.667 512 279.564 512 256C512 232.436 492.898 213.333 469.333 213.333C445.769 213.333 426.667 232.436 426.667 256C426.667 279.564 445.769 298.667 469.333 298.667Z" fill="white"/>
</g>
<defs>
<clipPath id="clip0_905_259">
<rect width="512" height="512" fill="white"/>
</clipPath>
</defs>
</svg>
