<svg width="112" height="68" viewBox="0 0 112 68" fill="none" xmlns="http://www.w3.org/2000/svg">
<path d="M26.0403 57.9129H28.589V63.6942C27.843 64.2882 26.9727 64.7441 25.9781 65.0618C24.9835 65.3796 23.9612 65.5384 22.9113 65.5384C21.4332 65.5384 20.1001 65.2207 18.9121 64.5852C17.7241 63.936 16.7916 63.0449 16.1147 61.9122C15.4378 60.7794 15.0994 59.5016 15.0994 58.0787C15.0994 56.6558 15.4378 55.378 16.1147 54.2452C16.7916 53.1125 17.7241 52.2284 18.9121 51.5929C20.1139 50.9436 21.4608 50.619 22.9528 50.619C24.1684 50.619 25.2736 50.8193 26.2682 51.2199C27.2628 51.6205 28.0986 52.2076 28.7755 52.9812L27.0763 54.639C25.9712 53.5338 24.6381 52.9812 23.0771 52.9812C22.0548 52.9812 21.1431 53.1954 20.3419 53.6236C19.5545 54.0518 18.9328 54.6528 18.4769 55.4264C18.0349 56.2 17.8139 57.0841 17.8139 58.0787C17.8139 59.0457 18.0349 59.916 18.4769 60.6896C18.9328 61.4632 19.5545 62.071 20.3419 62.5131C21.1431 62.9551 22.0479 63.1762 23.0564 63.1762C24.1891 63.1762 25.1838 62.9275 26.0403 62.4302V57.9129ZM38.1718 54.1416C39.5671 54.1416 40.686 54.5492 41.5287 55.3642C42.3714 56.1792 42.7927 57.388 42.7927 58.9905V65.3312H40.2025V59.322C40.2025 58.355 39.9746 57.6297 39.5187 57.1462C39.0629 56.6489 38.4136 56.4003 37.5709 56.4003C36.6177 56.4003 35.8649 56.6904 35.3123 57.2706C34.7597 57.837 34.4834 58.6589 34.4834 59.7364V65.3312H31.8932V49.9559H34.4834V55.5507C34.9117 55.0948 35.4366 54.7495 36.0583 54.5146C36.6937 54.266 37.3982 54.1416 38.1718 54.1416ZM56.5818 59.8608C56.5818 60.0403 56.568 60.2959 56.5404 60.6274H47.8581C48.0101 61.4425 48.4038 62.0918 49.0392 62.5753C49.6885 63.0449 50.4897 63.2798 51.4429 63.2798C52.6586 63.2798 53.6601 62.8792 54.4475 62.0779L55.8359 63.6735C55.3386 64.2675 54.71 64.7165 53.9502 65.0204C53.1904 65.3243 52.3339 65.4763 51.3808 65.4763C50.1651 65.4763 49.0945 65.2345 48.1689 64.751C47.2434 64.2675 46.525 63.5975 46.0139 62.741C45.5166 61.8707 45.2679 60.8899 45.2679 59.7986C45.2679 58.7211 45.5097 57.7541 45.9932 56.8976C46.4905 56.0273 47.1743 55.3504 48.0446 54.8669C48.9149 54.3834 49.8957 54.1416 50.9871 54.1416C52.0646 54.1416 53.0247 54.3834 53.8673 54.8669C54.7238 55.3366 55.3869 56.0066 55.8566 56.8769C56.3401 57.7334 56.5818 58.728 56.5818 59.8608ZM50.9871 56.2138C50.1582 56.2138 49.4537 56.4624 48.8735 56.9598C48.3071 57.4433 47.9617 58.0925 47.8374 58.9076H54.116C54.0055 58.1063 53.667 57.4571 53.1006 56.9598C52.5343 56.4624 51.8297 56.2138 50.9871 56.2138ZM61.5357 55.8822C62.2817 54.7218 63.594 54.1416 65.4728 54.1416V56.6075C65.2518 56.566 65.0514 56.5453 64.8719 56.5453C63.8634 56.5453 63.076 56.8423 62.5096 57.4363C61.9432 58.0165 61.66 58.8592 61.66 59.9644V65.3312H59.0699V54.266H61.5357V55.8822Z" fill="#08171E"/>
<path d="M74.4443 53.1056H69.6369V50.8262H81.9454V53.1056H77.138V65.3312H74.4443V53.1056ZM87.3587 54.1417C88.9888 54.1417 90.2321 54.5354 91.0886 55.3228C91.9589 56.0964 92.394 57.2706 92.394 58.8454V65.3312H89.9489V63.9843C89.6312 64.4678 89.1753 64.8408 88.5813 65.1033C88.0011 65.3519 87.2966 65.4763 86.4677 65.4763C85.6388 65.4763 84.9136 65.3381 84.292 65.0618C83.6703 64.7717 83.1868 64.378 82.8415 63.8807C82.5099 63.3696 82.3441 62.7963 82.3441 62.1608C82.3441 61.1662 82.7102 60.3719 83.4424 59.7779C84.1883 59.1701 85.3557 58.8661 86.9443 58.8661H89.8038V58.7004C89.8038 57.9268 89.569 57.3328 89.0993 56.9183C88.6434 56.5039 87.9596 56.2967 87.0479 56.2967C86.4263 56.2967 85.8115 56.3934 85.2037 56.5868C84.6097 56.7802 84.1055 57.0496 83.691 57.3949L82.6757 55.5093C83.2559 55.0672 83.9535 54.7288 84.7685 54.4939C85.5836 54.2591 86.447 54.1417 87.3587 54.1417ZM87.0065 63.5906C87.6557 63.5906 88.229 63.4456 88.7263 63.1555C89.2375 62.8516 89.5966 62.4233 89.8038 61.8707V60.586H87.1308C85.6388 60.586 84.8929 61.0764 84.8929 62.0572C84.8929 62.5269 85.0794 62.8999 85.4524 63.1762C85.8253 63.4525 86.3434 63.5906 87.0065 63.5906ZM100.235 60.586L98.3084 62.4095V65.3312H95.7182V49.9559H98.3084V59.2391L103.675 54.266H106.783L102.163 58.9076L107.219 65.3312H104.069L100.235 60.586Z" fill="#08171E"/>
<path d="M11.7891 67.6585V40.3913L47.9778 14.3677V0L0 34.492V67.6585H11.7891Z" fill="#328FB8"/>
<path d="M84.1678 42.7436V40.3913L47.979 14.3677V0L95.9569 34.492V42.7436H84.1678Z" fill="#328FB8"/>
<rect x="3.15264" y="15.2263" width="27.2378" height="4.91174" rx="2.45587" fill="#328FB8"/>
<rect x="0.0270615" y="8.52851" width="39.7404" height="4.91174" rx="2.45587" fill="#328FB8"/>
<rect x="7.61784" y="21.9241" width="16.9678" height="4.91174" rx="2.45587" fill="#328FB8"/>
</svg>
